<svg width="340" height="322" viewBox="0 0 340 322" fill="none" xmlns="http://www.w3.org/2000/svg">
<path d="M337.823 221.19V226.834C337.823 228.94 337.254 231.006 336.176 232.815C335.099 234.623 333.554 236.105 331.704 237.105L183.546 317.165C179.445 319.381 174.752 320.251 170.13 319.651H170.123C167.002 319.244 164.003 318.179 161.324 316.527L45.6122 245.309C35.8114 239.491 38.708 230.762 38.708 230.762L6.68311 69.2139C8.65055 63.7078 21.4792 60.3474 21.4792 60.3474L198.647 2.42708C207.808 1.35815 213.696 3.8098 216.84 9.21305C217.726 10.775 218.321 12.4855 218.597 14.2609C218.655 14.5955 218.698 14.9301 218.734 15.2725L230.488 126.749L232.438 145.173L260.29 163.604L332.589 211.451C334.197 212.514 335.517 213.96 336.431 215.66C337.344 217.359 337.823 219.259 337.823 221.19Z" fill="#B4C5D8"/>
<g opacity="0.6">
<path d="M216.84 9.21305C217.179 9.79182 217.47 10.3975 217.71 11.0241C214.313 7.29131 208.933 5.71461 201.246 6.60907L24.0704 64.5293C24.0704 64.5293 11.2431 67.8898 9.28211 73.3959L41.3057 234.944C41.3057 234.944 40.2089 238.254 41.654 242.16C36.7159 236.785 38.7132 230.762 38.7132 230.762L6.68311 69.2139C8.65055 63.7078 21.4792 60.3474 21.4792 60.3474L198.647 2.42708C207.808 1.35815 213.696 3.8098 216.84 9.21305Z" fill="white"/>
</g>
<path d="M264.98 238.793L215.279 262.84L197.71 251.456C206.126 236.7 224.517 230.166 252.884 231.853L264.98 238.793Z" fill="#949099"/>
<g opacity="0.3">
<path d="M337.824 221.189V226.833C337.823 228.939 337.254 231.006 336.177 232.814C335.1 234.622 333.554 236.105 331.704 237.105L183.547 317.164C179.445 319.38 174.752 320.25 170.131 319.651C245.864 281.603 284.471 244.005 284.471 244.005C317.039 227.297 296.247 214.037 296.247 214.037C254.183 258.525 164.555 262.839 164.555 262.839L220.266 177.737C225.891 172.849 251.431 164.208 251.431 164.208C251.431 164.208 254.85 163.947 260.289 163.604L332.588 211.45C334.197 212.513 335.517 213.959 336.431 215.659C337.344 217.358 337.823 219.259 337.824 221.189Z" fill="#262F6A"/>
</g>
<path d="M62.5552 218.12L95.4689 206.271L156.751 248.459L133.657 259.006L62.5552 218.12Z" fill="#949099"/>
<path d="M215.277 264.661C214.927 264.66 214.585 264.559 214.292 264.369L196.722 252.987C196.505 252.866 196.314 252.701 196.162 252.503C196.011 252.305 195.901 252.078 195.841 251.836C195.78 251.593 195.77 251.341 195.811 251.095C195.852 250.849 195.943 250.614 196.078 250.404C196.213 250.194 196.39 250.015 196.598 249.877C196.805 249.738 197.039 249.644 197.284 249.6C197.529 249.556 197.781 249.562 198.023 249.62C198.266 249.677 198.494 249.783 198.694 249.933L215.405 260.76L261.09 238.655L251.981 233.429C251.756 233.32 251.555 233.167 251.392 232.977C251.228 232.787 251.106 232.566 251.032 232.327C250.957 232.088 250.933 231.836 250.96 231.587C250.987 231.338 251.066 231.098 251.19 230.88C251.314 230.663 251.481 230.474 251.682 230.324C251.882 230.174 252.111 230.068 252.354 230.011C252.598 229.954 252.85 229.948 253.096 229.993C253.342 230.038 253.576 230.133 253.783 230.273L265.883 237.214C266.169 237.379 266.404 237.619 266.564 237.908C266.724 238.197 266.802 238.525 266.791 238.855C266.779 239.186 266.678 239.507 266.499 239.784C266.319 240.061 266.068 240.284 265.771 240.43L216.065 264.48C215.819 264.599 215.55 264.661 215.277 264.661Z" fill="#262F6A"/>
<path d="M133.657 260.822C133.341 260.822 133.029 260.739 132.754 260.581L61.6522 219.699C61.3534 219.525 61.1104 219.269 60.9514 218.962C60.7925 218.654 60.7242 218.308 60.7546 217.963C60.785 217.618 60.9128 217.289 61.1231 217.014C61.3334 216.739 61.6174 216.53 61.9419 216.411L94.8557 204.563C95.1266 204.466 95.4167 204.435 95.702 204.472C95.9873 204.509 96.2597 204.614 96.497 204.777L157.779 246.961C158.041 247.145 158.251 247.395 158.386 247.685C158.521 247.976 158.578 248.298 158.549 248.617C158.521 248.937 158.409 249.243 158.225 249.505C158.04 249.767 157.79 249.976 157.499 250.111L134.406 260.657C134.171 260.765 133.916 260.821 133.657 260.822ZM66.8632 218.5L133.751 256.962L153.081 248.136L95.2105 208.295L66.8632 218.5Z" fill="#262F6A"/>
<path d="M41.875 88.5208L55.4587 195.935C56.302 202.613 63.1348 206.762 69.4348 204.424L207.663 153.125C209.84 152.319 211.687 150.807 212.911 148.83C214.135 146.854 214.666 144.524 214.42 142.211L203.728 42.0541C203.564 40.5176 203.062 39.0365 202.258 37.7176C201.455 36.3986 200.369 35.2746 199.08 34.4264C197.791 33.5782 196.33 33.0269 194.802 32.8123C193.275 32.5976 191.719 32.7249 190.247 33.185L49.121 77.2261C46.7816 77.9564 44.7734 79.4884 43.4485 81.5536C42.1236 83.6188 41.5666 86.0853 41.875 88.5208Z" fill="#09CBFF"/>
<path d="M65.7963 207.264C62.7282 207.257 59.7675 206.131 57.4674 204.097C55.1673 202.062 53.6851 199.259 53.2977 196.209L39.7141 88.795C39.3383 85.8509 40.0103 82.8683 41.6119 80.3713C43.2136 77.8744 45.6423 76.023 48.4714 75.1424L189.597 31.1013C191.377 30.5458 193.257 30.3924 195.103 30.6521C196.949 30.9119 198.714 31.5783 200.272 32.6035C201.83 33.6287 203.142 34.9872 204.113 36.5811C205.084 38.1751 205.691 39.965 205.889 41.8219L216.573 141.975C216.873 144.77 216.233 147.586 214.755 149.975C213.277 152.365 211.046 154.192 208.414 155.168L70.186 206.466C68.7814 206.99 67.2952 207.26 65.7963 207.264ZM44.0349 88.2469L57.6186 195.661C57.7748 196.897 58.2076 198.081 58.8848 199.126C59.5619 200.171 60.4658 201.049 61.5291 201.695C62.5923 202.341 63.7874 202.738 65.0252 202.856C66.263 202.974 67.5114 202.811 68.6773 202.378L206.906 151.08C208.629 150.441 210.09 149.245 211.058 147.68C212.025 146.116 212.444 144.272 212.247 142.442L201.563 42.2906C201.434 41.0745 201.037 39.9022 200.401 38.8582C199.766 37.8141 198.907 36.9242 197.887 36.2526C196.867 35.581 195.711 35.1443 194.502 34.974C193.293 34.8037 192.062 34.904 190.897 35.2677L49.7709 79.3088C47.9184 79.885 46.3279 81.0969 45.2789 82.7316C44.2298 84.3663 43.7894 86.3191 44.0349 88.2469Z" fill="#262F6A"/>
<path d="M172.985 322C168.467 322.004 164.036 320.753 160.184 318.387L44.4756 247.168C35.5585 241.873 35.4519 233.669 36.6449 230.073C36.8249 229.523 37.2157 229.067 37.7311 228.806C38.2465 228.545 38.8444 228.499 39.3933 228.68C39.9422 228.86 40.397 229.252 40.6577 229.768C40.9185 230.285 40.9638 230.884 40.7838 231.433C40.6928 231.725 38.6331 238.626 46.7264 243.43L162.464 314.67C165.465 316.51 168.895 317.531 172.413 317.631C175.93 317.73 179.413 316.904 182.512 315.236L330.669 235.185C332.174 234.373 333.431 233.168 334.307 231.697C335.183 230.227 335.645 228.546 335.644 226.834V221.192C335.647 219.623 335.259 218.077 334.517 216.695C333.775 215.313 332.701 214.138 331.392 213.275L231.233 146.994C230.965 146.817 230.74 146.582 230.573 146.307C230.406 146.032 230.302 145.723 230.268 145.403L216.57 15.5039C216.363 13.5379 215.821 11.7919 214.962 10.3141C212.2 5.5684 207.011 3.68963 199.116 4.56977L22.1528 62.421C22.0816 62.4444 22.0091 62.4639 21.9358 62.4796C21.75 62.52 3.25029 66.6694 4.44453 77.2806C4.48353 77.5687 4.46469 77.8616 4.38914 78.1422C4.31358 78.4229 4.18282 78.6856 4.00454 78.9149C3.82626 79.1442 3.60405 79.3355 3.35096 79.4776C3.09786 79.6197 2.81899 79.7097 2.5307 79.7423C2.24242 79.7749 1.95053 79.7495 1.67219 79.6675C1.39385 79.5856 1.13465 79.4487 0.909825 79.265C0.684998 79.0813 0.499069 78.8544 0.362956 78.5977C0.226842 78.341 0.143287 78.0597 0.117196 77.7702C-1.47599 63.6319 18.9716 58.6752 20.9092 58.2404L197.974 0.352631C198.112 0.307546 198.254 0.276574 198.398 0.260189C208.183 -0.885561 215.023 1.75617 218.724 8.11639C219.894 10.1306 220.629 12.4624 220.902 15.0456L234.491 143.919L333.793 209.632C335.703 210.892 337.27 212.608 338.354 214.625C339.438 216.643 340.003 218.899 340 221.191V226.832C340.002 229.333 339.327 231.787 338.048 233.934C336.769 236.081 334.933 237.84 332.736 239.025L184.58 319.077C181.016 320.998 177.032 322.003 172.985 322Z" fill="#262F6A"/>
<path d="M21.4766 84.2381C18.4527 62.9793 2.50001 64.5234 2.17773 79.1031L24.9853 225.91C26.9826 237.547 40.14 235.502 40.7755 225.031L21.4766 84.2381Z" fill="#B4C5D8"/>
<path d="M32.7031 235.978C28.5447 235.978 23.9965 233.035 22.8386 226.279L0.025888 79.4386C0.00620481 79.3115 -0.00249084 79.183 -0.000102061 79.0545C0.162336 71.7152 4.12581 66.3601 9.637 66.0346C14.8792 65.7221 21.6821 70.2192 23.6326 83.9278C23.6332 83.9317 23.6332 83.9357 23.6326 83.9396L42.9328 224.734C42.9527 224.876 42.9584 225.019 42.9497 225.162C42.5391 231.925 37.727 235.716 33.1839 235.969C33.0241 235.974 32.8643 235.978 32.7031 235.978ZM4.35972 78.9634L27.1374 225.574C27.9327 230.204 30.6577 231.724 32.9461 231.607C35.4425 231.47 38.2455 229.376 38.5873 225.097L19.3196 84.532C17.8901 74.5066 13.4185 70.1606 9.8969 70.3859C6.78329 70.5668 4.52216 74.0887 4.35972 78.9634Z" fill="#262F6A"/>
<path d="M37.8689 228.824C41.1449 225.448 45.8894 227.531 48.7743 230.265C76.5355 245.675 135.656 279.001 164.243 294.974C165.262 295.514 167.232 296.743 168.361 297.142C171.74 298.488 175.6 298.023 178.715 296.195L180.904 295.073C214.52 278.017 247.85 260.374 281.507 243.397C296.212 236.12 310.981 229.031 326.119 222.633C314.9 229.497 303.431 235.87 291.895 242.113C257.199 260.646 221.827 277.904 186.933 296.066L182.557 298.311C181.157 299.026 179.413 299.987 177.964 300.558C173.629 302.251 168.587 301.751 164.613 299.35C160.809 297.212 153.492 293.115 149.601 290.93C127.142 278.068 68.4266 245.91 45.5346 232.277C44.1909 231.197 42.0104 230.045 40.6342 231.175C39.0982 232.954 36.3394 230.714 37.8689 228.819V228.824Z" fill="#262F6A"/>
<path d="M174.068 299.748L172.254 311.194L170.438 299.748H174.068Z" fill="#262F6A"/>
<g opacity="0.3">
<path d="M230.488 126.748C183.016 155.717 100.211 205.084 100.211 205.084L41.7917 228.899L39.1147 212.955C135.583 175.925 204.74 116.849 217.705 12.4277L218.591 14.2596C218.65 14.5942 218.693 14.9289 218.729 15.2713L230.488 126.748Z" fill="#262F6A"/>
</g>
<path d="M113.918 235.721C113.918 235.721 113.658 235.831 113.177 236.013C110.281 237.147 99.4923 241.17 93.0455 241.061C88.3855 240.988 83.0276 240.304 79.8478 236.747C77.8881 234.572 76.7549 231.335 77.0746 226.514C77.9245 213.784 98.6216 208.998 98.6216 208.998L104.299 212.577L111.196 223.727L113.918 235.721Z" fill="white"/>
<path d="M321.004 154.08C309.934 174.261 284.524 182.992 284.524 182.992L281.62 159.166C281.62 159.166 288.808 157.638 294.629 152.205C298.651 148.459 302.02 142.858 301.947 134.618C301.839 122.929 289.874 112.403 279.855 100.038C272.56 91.0405 266.295 81.0685 266.374 68.973C266.526 44.8863 275.1 36.3934 285.347 33.7386H285.355C287.342 33.2356 289.371 32.9166 291.417 32.7856C304.121 31.8742 307.752 43.6962 306.481 61.3356C305.341 77.1261 305.515 87.3819 311.817 97.5803C312.579 98.8138 313.403 100.008 314.286 101.158C323 112.621 332.076 133.895 321.004 154.08Z" fill="white"/>
<path d="M311.821 97.5862C301.887 102.532 290.423 103.414 279.853 100.044C272.557 91.0463 266.293 81.0744 266.372 68.9789C266.524 44.8921 275.098 36.3992 285.345 33.7445H285.352C287.34 33.2415 289.369 32.9224 291.415 32.7914C304.118 31.88 307.749 43.7021 306.478 61.3414C305.345 77.132 305.519 87.3877 311.821 97.5862Z" fill="#51504F"/>
<g opacity="0.6">
<path d="M306.542 133.659C306.614 141.9 303.245 147.501 299.223 151.247C293.401 156.68 286.214 158.208 286.214 158.208L289.009 181.163C286.25 182.4 284.523 182.996 284.523 182.996L281.618 159.17C281.618 159.17 288.806 157.643 294.628 152.209C298.656 148.464 302.018 142.862 301.945 134.621C301.765 114.44 266.192 97.7069 266.373 68.9759C266.525 44.8891 275.099 36.3975 285.345 33.7428H285.352C286.546 33.4336 287.758 33.2005 288.981 33.0449C279.958 35.7361 272.422 43.3007 271.152 62.6196C277.846 68.6777 279.522 75.37 274.141 82.9567C282.853 103.124 306.396 117.25 306.542 133.659Z" fill="white"/>
</g>
<g opacity="0.3">
<path d="M321.003 154.082C309.932 174.263 284.523 182.995 284.523 182.995L281.619 159.169C281.619 159.169 288.806 157.642 294.628 152.209L295.408 152.805C295.408 152.805 301.336 165.955 314.584 150.865C327.833 135.775 309.564 108.3 303.864 97.2815C292.321 74.9759 308.62 33.4945 285.352 33.7445C287.339 33.2408 289.369 32.9218 291.414 32.7914C304.118 31.88 307.749 43.7021 306.478 61.3401C305.207 78.9782 305.568 89.7079 314.283 101.164C322.997 112.62 332.074 133.899 321.003 154.082Z" fill="#262F6A"/>
</g>
<path d="M284.523 185.178C284.007 185.178 283.509 184.995 283.115 184.661C282.722 184.327 282.459 183.864 282.374 183.355C282.289 182.846 282.387 182.323 282.651 181.879C282.915 181.435 283.327 181.1 283.815 180.932C284.062 180.847 308.571 172.216 319.093 153.031C328.949 135.064 322.177 115.144 312.556 102.49C303.02 89.9501 303.1 77.9952 304.31 61.1866C305.165 49.3255 303.683 41.3963 299.905 37.6023C297.883 35.5752 295.157 34.7145 291.574 34.971C280.952 35.7314 268.736 40.2857 268.551 68.9946C268.457 83.8607 278.454 95.3195 288.122 106.401C296.309 115.775 304.034 124.638 304.123 134.606C304.319 156.323 282.292 161.261 282.071 161.309C281.791 161.369 281.502 161.373 281.221 161.321C280.939 161.269 280.671 161.162 280.431 161.007C280.191 160.851 279.984 160.649 279.822 160.413C279.659 160.177 279.545 159.911 279.485 159.631C279.426 159.35 279.422 159.061 279.473 158.779C279.525 158.497 279.632 158.228 279.788 157.988C279.943 157.747 280.145 157.54 280.38 157.377C280.616 157.215 280.881 157.1 281.161 157.04C281.96 156.867 299.928 152.744 299.765 134.646C299.691 126.295 292.477 118.027 284.84 109.274C275.113 98.1253 264.088 85.4882 264.192 68.9685C264.347 44.456 273.202 31.9114 291.261 30.6198C296.112 30.2695 300.056 31.5833 302.984 34.5257C307.76 39.3158 309.611 48.1419 308.653 61.5082C307.323 79.9704 308.053 89.3785 316.018 99.8517C326.469 113.598 333.77 135.34 322.905 155.142C311.559 175.828 286.293 184.697 285.219 185.067C284.995 185.142 284.759 185.179 284.523 185.178Z" fill="#262F6A"/>
<path d="M93.2875 243.247H93.0107C88.582 243.175 82.2391 242.587 78.3146 238.315C75.7156 235.48 74.563 231.464 74.9021 226.373C75.8456 212.19 97.2263 207.085 98.1359 206.874C98.4146 206.81 98.7032 206.801 98.9853 206.848C99.2674 206.895 99.5375 206.998 99.7801 207.15C100.023 207.301 100.233 207.5 100.399 207.733C100.565 207.966 100.684 208.23 100.749 208.509C100.813 208.788 100.822 209.077 100.775 209.36C100.728 209.643 100.625 209.913 100.474 210.156C100.322 210.4 100.125 210.61 99.8918 210.777C99.659 210.943 99.3957 211.062 99.117 211.127C98.9143 211.174 79.9767 215.71 79.2477 226.663C78.9878 230.515 79.7558 233.434 81.5192 235.359C84.3092 238.396 89.4539 238.825 93.0847 238.884C98.5426 238.961 107.613 235.79 111.379 234.371L109.158 224.567L102.453 213.723C102.161 213.231 102.074 212.645 102.21 212.09C102.345 211.534 102.693 211.054 103.178 210.753C103.663 210.452 104.247 210.354 104.804 210.48C105.36 210.605 105.846 210.945 106.155 211.425L113.053 222.578C113.179 222.784 113.271 223.009 113.324 223.244L116.046 235.238C116.16 235.742 116.092 236.27 115.854 236.729C115.616 237.187 115.223 237.546 114.746 237.742C114.183 237.971 101.175 243.247 93.2875 243.247Z" fill="#262F6A"/>
<path d="M284.414 199.012C282.41 207.609 277.957 215.437 271.596 221.546C251.53 240.784 229.445 244.101 218.766 237.184C218.766 237.184 209.75 249.186 182.525 259.733C155.301 270.28 128.261 266.097 137.877 246.821C137.877 246.821 137.543 246.8 136.94 246.713C136.788 246.691 136.62 246.661 136.438 246.632H136.432C130.704 245.709 109.476 240.625 100.212 214.912C99.864 213.937 99.5301 212.941 99.2182 211.908C89.2367 179.176 208.84 110.694 208.84 110.694C226.758 106.346 249.845 110.091 266.374 124.012C266.374 124.014 266.375 124.016 266.377 124.018C266.378 124.019 266.38 124.02 266.382 124.02C283.005 138.022 292.994 162.316 284.414 199.012Z" fill="white"/>
<path d="M155.245 267.541C146.889 267.541 140.156 265.579 136.594 261.655C134.371 259.206 132.427 255.028 134.761 248.552C130.029 247.579 125.473 245.893 121.246 243.551C113.214 239.124 102.511 230.154 97.1403 212.545C92.7025 197.991 110.15 176.031 148.99 147.272C177.418 126.228 207.459 108.976 207.759 108.8C207.937 108.699 208.128 108.623 208.327 108.575C226.687 104.114 253.319 107.678 271.429 125.687C283.411 137.601 295.757 160.081 286.532 199.51C284.439 208.521 279.772 216.726 273.1 223.122C263.509 232.317 252.819 238.598 242.191 241.286C233.397 243.513 225.167 243.019 219.234 239.97C215.883 243.587 205.534 253.155 183.309 261.764C173.37 265.618 163.512 267.541 155.245 267.541ZM209.65 112.744C176.616 131.695 93.5511 185.861 101.3 211.27C105.245 224.208 112.606 233.751 123.168 239.632C131.095 244.047 137.982 244.64 138.045 244.646C138.4 244.674 138.744 244.789 139.044 244.981C139.345 245.174 139.594 245.437 139.77 245.748C139.946 246.059 140.042 246.409 140.052 246.766C140.061 247.124 139.983 247.478 139.824 247.798C137.485 252.477 137.485 256.15 139.824 258.719C145.556 265.032 163.968 264.578 181.744 257.697C207.919 247.557 216.944 235.982 217.032 235.866C217.365 235.429 217.85 235.133 218.391 235.038C218.931 234.943 219.488 235.055 219.95 235.352C229.814 241.741 250.748 238.521 270.096 219.972C276.157 214.16 280.397 206.705 282.297 198.517C291.063 161.047 279.56 139.915 268.368 128.784C251.543 112.06 226.823 108.682 209.65 112.744Z" fill="#262F6A"/>
<path d="M133.657 85.1645L83.6877 110.695L76.7119 114.26C72.7472 75.8618 87.2678 61.5178 93.8445 57.0676C94.7259 56.4598 95.7304 56.0547 96.7863 55.8811C97.8421 55.7076 98.9232 55.77 99.9522 56.0638C103.14 56.9947 106.218 58.4412 109.121 60.2171H109.129V60.2237C109.159 60.238 109.224 60.2822 109.325 60.3473C123.478 69.0394 133.657 85.1645 133.657 85.1645Z" fill="white"/>
<g opacity="0.3">
<path d="M133.657 85.1649L83.6878 110.696C80.9081 109.168 79.6372 106.769 80.8289 103.35C86.2738 87.7116 99.8211 80.4347 109.745 73.404C118.826 66.9735 110.768 61.2721 109.331 60.3477C123.478 69.0397 133.657 85.1649 133.657 85.1649Z" fill="#262F6A"/>
</g>
<g opacity="0.6">
<path d="M133.657 85.1645L133.113 85.4419C127.907 78.4372 116.139 64.4864 102.245 60.4281C101.216 60.1345 100.135 60.0721 99.0789 60.2454C98.0231 60.4187 97.0185 60.8234 96.1369 61.4306C89.8733 65.6712 76.4104 78.8877 78.5702 113.315L76.7119 114.26C72.7472 75.8618 87.2678 61.5178 93.8445 57.0676C94.7259 56.4598 95.7304 56.0547 96.7863 55.8811C97.8421 55.7076 98.9232 55.77 99.9522 56.0638C118.753 61.5543 133.657 85.1645 133.657 85.1645Z" fill="white"/>
</g>
<path d="M76.7095 116.441C76.1719 116.44 75.6535 116.24 75.254 115.88C74.8546 115.519 74.6023 115.023 74.5459 114.488C70.4525 74.8487 85.8242 59.8642 92.6232 55.2629C93.7689 54.4747 95.0743 53.95 96.4461 53.7263C97.8178 53.5025 99.2219 53.5853 100.558 53.9688C119.93 59.6324 134.865 83.0031 135.498 84.003C135.793 84.4917 135.885 85.0769 135.755 85.633C135.624 86.189 135.281 86.6716 134.799 86.977C134.317 87.2825 133.735 87.3865 133.178 87.2667C132.62 87.1468 132.132 86.8128 131.817 86.3362C131.672 86.107 117.118 63.3561 99.339 58.1586C98.617 57.9558 97.8593 57.9152 97.1198 58.0397C96.3803 58.1641 95.6774 58.4506 95.0611 58.8786C88.9132 63.0449 75.028 76.7484 78.8784 114.039C78.9077 114.324 78.8805 114.613 78.7984 114.888C78.7162 115.163 78.5807 115.419 78.3997 115.641C78.2186 115.864 77.9955 116.049 77.7432 116.185C77.4909 116.321 77.2143 116.405 76.9292 116.434C76.8561 116.44 76.7828 116.442 76.7095 116.441Z" fill="#262F6A"/>
<path d="M213.153 170.649C211.418 183.458 207.12 196.892 197.429 204.821C196.972 205.192 196.5 205.556 196.014 205.905C171.583 223.601 146.647 221.419 146.647 221.419L125.551 220.088C81.0993 212.814 53.4823 188.812 53.1197 169.173C52.9898 162.022 54.9936 151.825 58.87 140.937V140.929C65.6352 121.92 78.1026 100.8 94.8662 90.0133C107.898 81.6272 126.431 80.3395 141.844 81.1975C142.084 81.2053 142.324 81.2197 142.555 81.234C157.997 82.1454 170.128 85.1621 170.128 85.1621C170.128 85.1621 188.274 69.395 202.072 75.2188C206.4 77.0416 209.107 83.838 210.779 92.297C214.453 110.802 213.196 137.292 213.196 137.292C213.196 137.292 215.497 153.403 213.153 170.649Z" fill="white"/>
<path d="M213.153 170.649C166.066 166.766 129.709 141.387 129.709 110.649C129.709 99.9566 134.108 89.9117 141.84 81.1975C142.079 81.2053 142.32 81.2197 142.551 81.234C157.993 82.1454 170.124 85.1621 170.124 85.1621C170.124 85.1621 188.274 69.395 202.072 75.2188C206.399 77.0416 209.106 83.838 210.779 92.297C214.452 110.802 213.196 137.292 213.196 137.292C213.196 137.292 215.497 153.403 213.153 170.649Z" fill="#51504F"/>
<g opacity="0.6">
<path d="M211.497 96.3944C209.82 87.9497 207.118 81.1703 202.79 79.3384C188.996 73.5198 170.847 89.2817 170.847 89.2817L157.91 96.5051L168.204 88.6932C161.649 87.3104 143.863 84.0815 125.895 85.39C120.604 91.9998 114.018 93.2505 106.136 89.1423C102.367 90.4235 98.8103 92.0601 95.5876 94.1329C69.2077 111.109 53.4838 153.66 53.8437 173.294C53.8515 173.789 53.8801 174.283 53.9308 174.785C53.4337 172.953 53.1606 171.068 53.1173 169.17C52.7599 149.536 68.4839 106.985 94.8637 90.016C121.244 73.0472 170.126 85.1635 170.126 85.1635C170.126 85.1635 188.273 69.4016 202.073 75.2215C207.076 77.3372 209.914 86.0957 211.497 96.3944Z" fill="white"/>
</g>
<path d="M115.733 162.748L109.25 165.681C107.34 172.842 107.74 180.571 109.722 185.298V185.306C110.709 187.663 112.088 189.27 113.766 189.699C115.094 190.034 117.875 189.452 119.363 187.902C122.448 184.694 123.994 180.68 124.771 177.392C125.591 173.907 125.551 171.253 125.551 171.253C117.395 171.211 115.733 162.748 115.733 162.748Z" fill="#262F6A"/>
<path d="M164.554 149.537C160.108 149.306 156.418 149.47 152.4 150.951C148.383 152.336 144.794 154.489 140.598 155.962C144.666 147.489 157.158 142.002 164.554 149.537Z" fill="#262F6A"/>
<path d="M83.9712 135.475C88.4649 134.203 93.3276 136.825 95.7174 140.655C97.1403 143.008 97.7446 145.896 96.9181 148.568C96.2346 147.875 95.7966 147.181 95.2677 146.555C91.9956 142.179 88.2193 139.049 83.9712 135.475Z" fill="#262F6A"/>
<path d="M124.772 177.394C123.992 180.683 122.448 184.697 119.363 187.905C117.875 189.454 115.094 190.036 113.766 189.702C112.089 189.272 110.71 187.665 109.722 185.309V185.301C112.597 176.063 121.316 176.733 124.772 177.394Z" fill="#F7417E"/>
<path d="M112.855 152.129C115.265 151.999 119.724 153.191 121.978 154.683C122.22 154.848 122.425 155.062 122.578 155.312C122.731 155.562 122.829 155.842 122.866 156.133C122.903 156.424 122.878 156.719 122.792 157C122.706 157.28 122.561 157.539 122.368 157.759C121.135 159.168 119.58 160.258 117.836 160.937C117.463 161.072 117.062 161.117 116.668 161.068C116.274 161.019 115.897 160.877 115.567 160.654C113.007 158.943 111.727 156.64 111.357 153.918C111.329 153.7 111.347 153.479 111.409 153.269C111.47 153.058 111.575 152.863 111.715 152.695C111.856 152.527 112.03 152.39 112.226 152.292C112.422 152.195 112.637 152.139 112.855 152.129Z" fill="#262F6A"/>
<path d="M124.092 173.195C122.283 173.218 120.511 172.685 119.014 171.669C116.934 170.247 115.489 167.893 114.855 165.078C113.085 166.641 110.984 167.523 108.823 167.525C105.469 167.525 102.564 165.465 100.853 161.873C100.729 161.655 100.65 161.414 100.623 161.164C100.596 160.915 100.621 160.662 100.696 160.423C100.771 160.184 100.894 159.962 101.058 159.773C101.223 159.583 101.424 159.43 101.65 159.322C101.876 159.214 102.122 159.154 102.373 159.146C102.623 159.138 102.872 159.181 103.105 159.274C103.338 159.367 103.549 159.507 103.725 159.685C103.901 159.864 104.039 160.076 104.129 160.31C105.23 162.62 106.897 163.891 108.823 163.891C111.11 163.891 113.382 162.098 114.752 159.215C114.94 158.833 115.256 158.528 115.645 158.355C116.034 158.181 116.471 158.15 116.88 158.266C117.29 158.382 117.646 158.639 117.886 158.99C118.127 159.342 118.236 159.767 118.196 160.192C117.792 163.935 118.891 167.184 121.064 168.669C123.029 170.012 125.728 169.85 128.873 168.206C129.085 168.074 129.323 167.987 129.571 167.951C129.818 167.915 130.071 167.93 130.312 167.997C130.553 168.063 130.778 168.178 130.973 168.335C131.168 168.493 131.328 168.689 131.444 168.911C131.56 169.133 131.629 169.377 131.647 169.627C131.664 169.877 131.63 170.128 131.546 170.364C131.463 170.6 131.331 170.817 131.16 171C130.99 171.183 130.783 171.329 130.553 171.428C128.295 172.604 126.108 173.195 124.092 173.195Z" fill="#262F6A"/>
<path d="M114.626 191.612C114.189 191.616 113.752 191.566 113.327 191.465C111.133 190.903 109.311 189.018 108.052 186.012C108.038 185.979 108.025 185.945 108.013 185.912C105.787 180.514 105.584 172.405 107.5 165.21C107.549 164.966 107.647 164.734 107.788 164.529C107.93 164.324 108.112 164.151 108.323 164.019C108.534 163.888 108.77 163.801 109.016 163.764C109.262 163.727 109.513 163.741 109.753 163.806C109.993 163.87 110.218 163.983 110.413 164.137C110.608 164.292 110.769 164.485 110.887 164.704C111.004 164.924 111.076 165.165 111.097 165.413C111.118 165.661 111.088 165.911 111.009 166.147C109.302 172.551 109.46 179.963 111.398 184.591C111.411 184.621 111.423 184.653 111.435 184.684C112.214 186.522 113.206 187.678 114.218 187.939C114.927 188.112 117.049 187.695 118.06 186.637C120.399 184.2 122.07 180.947 123.009 176.968C123.459 175.103 123.703 173.194 123.737 171.276C123.762 170.815 123.96 170.38 124.292 170.06C124.624 169.74 125.064 169.558 125.525 169.55C125.986 169.543 126.432 169.711 126.774 170.021C127.116 170.331 127.328 170.759 127.367 171.219C127.367 171.337 127.404 174.143 126.541 177.805C125.45 182.428 123.476 186.248 120.674 189.16C119.124 190.776 116.596 191.612 114.626 191.612Z" fill="#262F6A"/>
<path d="M125.549 220.092C103.383 219.128 80.7731 210.782 64.5618 195.33C58.4788 189.333 52.9845 181.92 51.3511 173.237C49.012 156.539 59.1247 131.399 67.5948 117.083C74.7694 105.01 84.0127 93.6294 96.3723 86.5817C101.396 83.8892 106.867 82.0248 112.437 80.853C131.702 76.9952 151.576 78.913 170.644 83.0403L168.695 83.5104C169.58 82.7591 170.402 82.125 171.277 81.474C180.143 75.0344 193.098 68.294 203.96 73.7454C211.26 78.3467 212.997 91.7064 214.134 99.5717C215.633 111.461 215.841 126.581 215.352 136.979C216.325 144.971 216.61 153.032 216.203 161.072C215.382 176.165 212.334 193.674 201.155 204.689C197.112 208.577 192.37 211.247 187.552 213.869C183.45 215.998 178.845 217.775 174.427 219.167L170.519 220.187C162.733 221.966 154.557 222.753 146.649 221.422C159.793 220.365 172.249 216.76 183.708 210.728C185.671 209.773 188.448 208.012 190.343 206.878C192.975 205.022 195.618 203.43 197.779 201.215C202.69 196.416 205.875 190.118 207.994 183.612C212.589 168.871 212.757 152.85 211.04 137.599C211.369 121.156 211.56 104.194 207.574 88.1454C207.042 86.2211 206.424 84.3267 205.625 82.5911C204.536 80.314 203.386 78.3024 201.289 77.2673C192.881 73.9004 183.471 78.624 176.338 83.25C174.68 84.349 173.082 85.5378 171.552 86.8109C171.287 87.0369 170.972 87.1972 170.634 87.2786C170.295 87.36 169.942 87.3604 169.603 87.2796C164.328 86.0746 158.996 85.1364 153.627 84.4686C140.272 82.8281 126.564 82.3594 113.353 85.1196C108.19 86.1938 103.118 87.9176 98.4671 90.4044C86.8352 97.0719 78.1312 107.89 71.3426 119.303C63.3247 133.21 57.1494 148.775 55.4627 164.799C54.8883 169.938 55.6758 175.027 58.1293 179.641C70.0925 201.986 102.498 213.255 125.547 220.095L125.549 220.092Z" fill="#262F6A"/>
<path d="M171.601 86.7646L156.811 97.5308L168.636 83.5656C170.853 81.1882 174.132 84.727 171.598 86.7646H171.601Z" fill="#262F6A"/>
<path d="M191.868 92.6526C194.044 91.4808 196.77 91.9105 198.375 93.7905C200.163 95.888 201.96 99.7797 202.306 106.985C203.031 122.139 201.217 126.745 194.44 126.385C190.002 126.146 182.399 120.604 177.677 116.807C176.283 115.693 175.33 114.119 174.988 112.366C174.646 110.613 174.936 108.796 175.808 107.237C178.133 103.117 182.75 97.5546 191.868 92.6526Z" fill="#FD6CCB"/>
<g opacity="0.3">
<path d="M202.378 108.805C201.689 106.876 200.847 105.503 200.011 104.52C198.408 102.644 195.677 102.214 193.499 103.378C185.034 107.935 180.454 113.052 177.986 117.049C177.883 116.962 177.782 116.882 177.681 116.801C176.287 115.687 175.334 114.113 174.991 112.36C174.648 110.606 174.938 108.788 175.808 107.229C178.13 103.12 182.747 97.5554 191.866 92.6469C194.044 91.483 196.774 91.9126 198.378 93.7888C200.164 95.8837 201.956 99.7779 202.306 106.983C202.332 107.612 202.363 108.215 202.378 108.805Z" fill="#262F6A"/>
</g>
<path d="M195.133 128.582C194.873 128.582 194.6 128.575 194.325 128.56C190.408 128.35 184.348 124.968 176.316 118.506C174.513 117.072 173.28 115.041 172.84 112.777C172.4 110.514 172.781 108.167 173.915 106.16C176.254 102.013 181.092 95.9696 190.839 90.7291C193.934 89.0665 197.8 89.7565 200.031 92.3735C202.671 95.467 204.168 100.348 204.482 106.88C205.023 118.2 204.153 123.478 201.267 126.353C199.764 127.854 197.751 128.582 195.133 128.582ZM194.436 94.1859C193.9 94.1868 193.371 94.321 192.899 94.5765C184.07 99.3235 179.764 104.664 177.707 108.31C177.085 109.416 176.877 110.709 177.123 111.954C177.368 113.2 178.049 114.317 179.044 115.104C186.042 120.733 191.696 124.05 194.557 124.203C196.818 124.324 197.69 123.763 198.196 123.259C200.488 120.976 200.435 113.419 200.132 107.091C199.801 100.191 198.095 96.8198 196.721 95.2093C196.437 94.8834 196.085 94.6232 195.691 94.4465C195.296 94.2698 194.868 94.1809 194.436 94.1859Z" fill="#262F6A"/>
<path d="M190.042 91.1789C194.799 88.8418 201.28 88.3445 205.312 92.2739L206.027 92.9783L204.727 92.2596C204.445 92.1294 203.673 91.869 203.369 91.7388C199.517 90.6464 195.403 92.2244 192.507 94.7763L190.044 91.1763L190.042 91.1789Z" fill="#262F6A"/>
<g opacity="0.3">
<path d="M196.012 205.907C171.581 223.604 146.645 221.422 146.645 221.422L125.549 220.091C81.0968 212.817 53.4811 188.813 53.1173 169.175C52.9873 162.025 54.9912 151.828 58.8676 140.938C41.1541 215.603 210.604 244.217 204.244 140.938C211.984 126.87 210.482 92.0078 210.482 92.0078L210.779 92.306C214.453 110.81 213.196 137.301 213.196 137.301C213.196 137.301 220.455 188.21 196.012 205.907Z" fill="#262F6A"/>
</g>
<path d="M239.33 164.205C228.377 172.177 219.297 185.167 220.877 199.109C221.549 205.551 225.14 211.853 231.107 214.709C237.301 217.834 244.683 217.26 251.436 215.848C241.105 221.171 227.737 220.989 220.58 210.577C213.8 200.778 215.824 187.239 222.321 177.897C226.491 171.741 232.574 167.047 239.337 164.206L239.33 164.205Z" fill="#262F6A"/>
<path d="M216.906 238.327C213.239 232.357 212.211 226.808 213.848 221.834C216.342 214.263 224.121 211.059 224.451 210.928L226.079 214.974C226.017 215 219.813 217.595 217.976 223.233C216.772 226.92 217.661 231.23 220.616 236.04L216.906 238.327Z" fill="#262F6A"/>
<path d="M135.964 245.777C137.05 244.119 138.807 243 140.466 242.055C144.762 239.686 149.945 238.723 154.707 237.866C160.877 236.529 166.96 234.3 172.25 230.76C167.312 234.942 161.398 237.895 155.269 239.974C151.006 241.259 146.082 242.726 142.456 245.312C141.49 245.997 140.208 247.08 139.782 247.873C138.353 250.361 134.645 248.342 135.96 245.781L135.964 245.777Z" fill="#262F6A"/>
<path d="M151.81 266.523C150.339 262.634 150.077 257.694 152.819 254.338C151.649 257.845 153.164 261.629 155.52 264.233L151.81 266.519V266.523Z" fill="#262F6A"/>
<path d="M139.79 263.651C138.865 259.316 139.776 253.915 143.774 251.457C141.421 254.377 141.834 258.419 143.525 261.527C143.614 261.701 143.717 261.869 143.833 262.027L139.79 263.651Z" fill="#262F6A"/>
<path d="M93.1623 242.439C90.8908 238.72 90.3372 233.394 93.4092 230.002C92.0798 233.329 93.4664 236.96 96.0199 239.232C96.1502 239.358 96.2926 239.471 96.4448 239.569L93.1623 242.433V242.439Z" fill="#262F6A"/>
<path d="M81.3148 240.187C80.2752 235.974 79.94 230.602 83.2901 227.365C81.6267 230.588 82.9002 234.266 84.5337 237.2C84.7529 237.599 84.9978 237.983 85.2666 238.35L81.3148 240.187Z" fill="#262F6A"/>
<g opacity="0.3">
<path d="M139.696 243.185C139.696 243.185 138.433 244.866 136.945 246.713C132.11 246.022 109.786 241.461 100.217 214.912L117.191 218.483C117.191 218.483 114.825 234.639 139.696 243.185Z" fill="#262F6A"/>
</g>
<g opacity="0.3">
<path d="M284.414 199.012C282.41 207.609 277.957 215.437 271.596 221.546C251.53 240.784 229.445 244.101 218.766 237.184C218.766 237.184 209.75 249.186 182.525 259.733C155.301 270.28 128.261 266.097 137.877 246.821C137.877 246.821 137.543 246.8 136.94 246.713C136.788 246.691 136.621 246.661 136.439 246.632L149.282 240.37C149.282 240.37 138.058 248.822 147.982 254.335C157.906 259.848 189 247.731 198.553 241.548C208.107 235.365 215.76 223.06 215.76 223.06L219.009 218.121C219.009 218.121 214.776 230.639 229.665 232.217C244.553 233.795 272.498 218.775 276.854 189.797C281.21 160.818 275.757 138.147 266.393 124.021C283.005 138.022 292.995 162.316 284.414 199.012Z" fill="#262F6A"/>
</g>
<g opacity="0.3">
<path d="M214.203 161.09C216.605 126.251 226.96 105.277 256.1 117.053C256.1 117.053 236.998 106.755 214.203 109.659V138.99" fill="#262F6A"/>
</g>
<g opacity="0.3">
<path d="M113.177 236.015C110.281 237.149 99.4922 241.172 93.0454 241.062C88.3854 240.99 83.0275 240.306 79.8477 236.749C80.1595 236.684 80.487 236.633 80.8275 236.581C98.7307 233.912 95.4702 214.033 95.4702 214.033L100.211 214.913L104.538 227.366C104.538 227.366 109.888 232.603 113.177 236.015Z" fill="#262F6A"/>
</g>
</svg>
