<svg width="467" height="421" viewBox="0 0 467 421" fill="none" xmlns="http://www.w3.org/2000/svg">
<g clip-path="url(#clip0_739_1119)">
<path opacity="0.6" d="M227.904 420.999C216.572 420.999 205.239 420.333 193.907 419.268C177.678 417.669 161.729 414.739 146.06 410.744C141.723 409.545 137.246 408.879 132.909 407.814C114.861 403.552 97.793 397.026 81.844 387.836C58.7598 374.251 40.852 356.138 27.1414 334.029C15.9491 315.782 8.53419 296.337 4.33706 275.693C0.979362 259.312 -0.419679 242.663 0.139937 226.015C0.419746 217.092 1.39907 208.168 2.79812 199.245C4.89668 186.326 7.83467 173.54 12.0318 161.021C21.6852 132.652 37.2145 107.613 58.48 85.7707C79.6055 63.9282 104.089 46.2145 131.23 31.6973C151.097 21.0424 172.082 12.7849 194.187 7.19112C207.898 3.72829 221.888 1.46414 236.158 0.531838C257.983 -0.800019 279.389 1.06458 300.374 7.45749C311.846 11.0535 322.619 15.9814 332.552 22.5075C344.444 30.4986 354.237 40.3544 361.512 52.4743C367.668 62.8627 372.285 73.784 375.643 85.2379C378.161 93.7618 380.12 102.419 382.078 111.076C384.037 119.733 385.996 128.257 388.794 136.648C392.431 147.569 397.608 157.824 404.183 167.414C409.499 175.005 415.096 182.464 421.112 189.522C427.967 197.78 434.822 206.171 441.538 214.561C446.014 220.155 449.932 226.015 453.429 232.275C461.264 246.126 465.741 260.777 466.86 276.493C467.84 290.743 465.741 304.462 460.285 317.78C457.347 324.972 453.289 331.632 448.393 337.758C440.558 347.481 431.464 356.004 421.391 363.596C406.002 375.183 389.073 384.506 371.306 392.098C350.04 401.288 327.935 408.08 305.131 412.875C292.68 415.405 280.228 417.403 267.637 418.868C259.942 419.8 252.107 420.333 244.273 420.599C238.677 420.733 233.36 420.866 227.904 420.999Z" fill="#2D9455" fill-opacity="0.4"/>
</g>
<defs>
<clipPath id="clip0_739_1119">
<rect width="467" height="421" fill="white"/>
</clipPath>
</defs>
</svg>
